<svg width="16" height="16" viewBox="0 0 16 16" fill="none" xmlns="http://www.w3.org/2000/svg">
<g clip-path="url(#clip0)">
<path d="M12.9217 4.77843C12.3813 2.06701 9.74514 0.30712 7.03372 0.847525C5.05056 1.24279 3.4999 2.79247 3.10342 4.77538C1.18093 4.99694 -0.198095 6.73498 0.0233404 8.65758C0.227198 10.427 1.72586 11.762 3.50698 11.7607H6.00991C6.2864 11.7607 6.51052 11.5366 6.51052 11.2601C6.51052 10.9836 6.2864 10.7595 6.00991 10.7595H3.50698C2.12454 10.7513 1.01065 9.62414 1.0187 8.24181C1.02688 6.85949 2.15408 5.74547 3.53652 5.75353C3.79165 5.75365 4.00601 5.56164 4.03408 5.3081C4.28823 3.11095 6.27542 1.53588 8.47256 1.79003C10.3197 2.00378 11.7769 3.46081 11.9905 5.3081C12.0325 5.56615 12.2561 5.75524 12.5176 5.75353C13.9 5.75353 15.0207 6.87414 15.0207 8.25658C15.0207 9.63891 13.9 10.7595 12.5176 10.7595H10.0147C9.73818 10.7595 9.51406 10.9836 9.51406 11.2601C9.51406 11.5366 9.73818 11.7607 10.0147 11.7607H12.5177C14.4529 11.7486 16.012 10.1702 16 8.23486C15.989 6.47253 14.6709 4.99255 12.9217 4.77843Z" fill="#D3D3E2"/>
<path d="M9.7827 9.73427C9.97484 9.93324 10.2917 9.93874 10.4906 9.7466C10.6894 9.55458 10.6949 9.23769 10.5029 9.03883C10.4989 9.03456 10.4947 9.03053 10.4906 9.0265L8.36754 6.90297C8.17235 6.70717 7.85533 6.7068 7.65953 6.90199C7.65929 6.90236 7.65892 6.9026 7.65868 6.90297L5.53563 9.0265C5.33678 9.21852 5.33128 9.53542 5.5233 9.73427C5.71544 9.93312 6.03233 9.93861 6.23119 9.7466C6.23534 9.74257 6.23949 9.73842 6.24351 9.73427L7.51256 8.46474V14.7653C7.51256 15.0418 7.73668 15.2659 8.01317 15.2659C8.28954 15.2659 8.51366 15.0418 8.51366 14.7653V8.46474L9.7827 9.73427Z" fill="#D3D3E2"/>
</g>
<defs>
<clipPath id="clip0">
<rect width="16" height="16" fill="white"/>
</clipPath>
</defs>
</svg>
